<svg xmlns="http://www.w3.org/2000/svg" viewBox="108 58 124 128" fill="none">
  <rect x="120" y="80" width="100" height="100" rx="4" fill="#1A6BFF"/>
  <rect x="110" y="62" width="120" height="24" rx="4" fill="#0F4FCC"/>
  <rect x="133" y="96" width="22" height="18" rx="2" fill="#E8F0FF"/>
  <rect x="165" y="96" width="22" height="18" rx="2" fill="#E8F0FF"/>
  <rect x="197" y="96" width="12" height="18" rx="2" fill="#E8F0FF"/>
  <rect x="133" y="124" width="22" height="18" rx="2" fill="#E8F0FF"/>
  <rect x="165" y="124" width="22" height="18" rx="2" fill="#E8F0FF"/>
  <rect x="197" y="124" width="12" height="18" rx="2" fill="#E8F0FF"/>
  <rect x="155" y="148" width="30" height="32" rx="3" fill="#0F4FCC"/>
  <circle cx="181" cy="165" r="3" fill="#E8F0FF"/>
  <rect x="145" y="178" width="50" height="5" rx="1" fill="#0F4FCC"/>
  <rect x="138" y="181" width="64" height="4" rx="1" fill="#D1E0FF"/>
  <rect x="100" y="183" width="140" height="2" rx="1" fill="#D1E0FF"/>
</svg>
